<?xml version="1.0" encoding="utf-8"?>
<!-- Generator: Adobe Illustrator 21.1.0, SVG Export Plug-In . SVG Version: 6.00 Build 0)  -->
<svg version="1.1" id="Layer_1" xmlns="http://www.w3.org/2000/svg" xmlns:xlink="http://www.w3.org/1999/xlink" x="0px" y="0px"
	 viewBox="0 0 646.6 222.4" style="enable-background:new 0 0 646.6 222.4;" xml:space="preserve">
<style type="text/css">
	.st0{fill:#D71016;}
	.st1{fill:#FFDFB8;}
	.st2{fill:#B2BF4E;}
	.st3{fill:#DEAB71;}
	.st4{fill:#C96649;}
	.st5{fill:#A15B3A;}
	.st6{fill:#FBBE3B;}
</style>
<g>
	<g>
		<g>
			<g>
				<path class="st0" d="M273.2,30.5c0,0-7.6-13.1-11.2-22.2c-3.7-9.1-4.1-8.2-6.7-4.3c-3,4.6-4.3,10.9-5.4,16.2
					c-1.6,7.8-2.6,18.6,0,26.3c2.5,7.5,12.2,4.3,16.8,1.5C273.1,44,276.5,37.9,273.2,30.5z"/>
				<path class="st0" d="M257.3,2.1c0,0-7.1,10.2-7.7,27.4c-0.7,17.2,1.7,20.4,6.6,20.9c0,0-3.6-1.9-3.9-15.2
					C251.9,21.8,254.6,6.3,257.3,2.1z"/>
				<path class="st0" d="M270.5,28.7c-0.7-1-1.5-2.6-2.4-4.4c0.1,0.7,0.2,1.4,0.4,2c0.6,3,2,5.8,2.6,8.8c0,0,0,0,0,0.1
					c1.9,7.5-7.2,13.1-7.2,13.1s3.5,0.4,7.6-5.7C275.4,36.5,272.7,32,270.5,28.7z"/>
			</g>
			<g>
				<path class="st0" d="M383,30.4c0,0,7.6-13.1,11.3-22.2C398-0.8,398.4,0,401,4c3,4.6,4.3,10.9,5.3,16.2c1.6,7.8,2.6,18.6,0,26.3
					c-2.5,7.5-12.2,4.3-16.8,1.5C383.1,44,379.7,37.9,383,30.4z"/>
				<path class="st0" d="M399,2.1c0,0,7,10.2,7.7,27.4c0.6,17.2-1.8,20.4-6.6,20.8c0,0,3.6-1.8,3.9-15.2
					C404.3,21.8,401.7,6.3,399,2.1z"/>
				<path class="st0" d="M385.7,28.6c0.7-1,1.6-2.6,2.4-4.3c-0.1,0.7-0.2,1.4-0.4,2c-1.2,5.8-3.2,13.5,0.8,18.7
					c1,1.3,2.4,2.5,3.9,3.3c0,0-3.5,0.4-7.6-5.7C380.8,36.5,383.6,32,385.7,28.6z"/>
			</g>
		</g>
		<g>
			<path class="st1" d="M244.2,186.1c6.5,0.7,12.8,1.6,19.3,2.6c21.8,3.4,43.8,5.2,65.9,5.1c22.3-0.1,45.1-1.2,67.2-4.5
				c7.2-1.1,14.4-2.6,21.4-4.4c4.5-1.2,9.6-2.2,11.2-7c0.7-2.1,0.9-5.4,0.4-8.3c-1.3-3.4-3.4-6.1-6.8-6.7c0.9,4.3,0.9,9.3-0.7,12.2
				c-3.3,5.6-14.4,7.1-20,8.3c-23.6,4.9-49.4,4.8-73.4,4.7c-14.5,0-28.4-0.8-42.8-2c-7.6-0.6-15.1-1.5-22.7-2.5
				c-5.9-0.8-12.5-0.8-18.1-2.7c-6-2-9.5-8-10.1-14.1c-2.2,0.9-3.5,3-4.1,5.5C230.4,181.3,235.3,185.1,244.2,186.1z"/>
			<path class="st2" d="M247.3,151.6c3.3,2.8-0.5,6.9,1.2,10c2.3,0.6,4.5,1.2,6.8,1.9c0.3-0.5,0.5-0.9,0.8-1.4
				c0.3-0.2,0.4-0.8,0.8-1c1.1-0.5,1.3-1.4,2.7-1.5c3.4-0.4,4.6,4.7,7,4.8c2.8,0.2,5.6-6.9,8.4-8.5c3.4-1.9,5.2-1.2,8.5,0.4
				c5.5,2.8,7.3,6.3,13.4,3.8c7.7-3.1,10.9-7,17.1-0.2c2.7,2.9,5.5,5.7,9.1,7.5c4.9,2.4,7.1,0.4,11.5-1.6c3.9-1.7,3.2-0.3,6.5,0.1
				c6.6,0.7,5.4-12,12.2-9.6c5.3,1.9,5.8,11.5,12.8,10.9c5-0.4,9-7.5,13-10.1c2.7-1.8,5.7-3.1,8.9-2.2c3.2,1,11.2,10.9,12-0.1
				c0.1-0.9,0.6-1.7,1.5-2c2.7-0.7,5-1.1,7.8-0.8c2.7,0.3,10.9,4.6,13.2,3.3c4.9-2.6-2.9-10.1,0.9-13.5c3.5-3.1,12.6,1.5,13.5-5.3
				c0.1-0.5-1.9-8.4-2.2-9.3c-3.5-10.4-9.6-5.9-15.2-3.7c4.8,4.1,6.9,10.8,0.3,15.2c-9,6-24.1,6.5-34.7,5.1
				c-4.7,3.8-9.3,7.6-13.8,11.7c-0.5,0.5-1.3,0.8-2,0.5c-9-3.6-18.2-6.6-27.5-9.5c-15.1,8-35.5,8.8-49.8-1.5
				c-0.3-0.2-0.6-0.6-0.7-0.9c-10.5,4.9-25.9,2-36.5,0.4c-7.4-1.1-16.5-3.8-19.4-11.6c-1.2-3.1-0.8-6.1,0.8-8.5
				c-0.1,0-0.2-0.1-0.4-0.1c-7.7,3-10.2,6.2-7.5,9.5c0.1,0.2,0.1,0.3,0.2,0.5c0,0.8,0.8,1.6,0.7,2.5c-0.1,0.9-0.6,1.3-1,2
				c-0.9,1.6-3.8,2.1-5.1,3.2c-2.4,2.1-1.4,0.5-1.1,2.8C223.9,159.5,240.4,145.7,247.3,151.6z"/>
			<path class="st3" d="M431.5,185.5c0-0.7,0-1.4,0-2.2c-4,5-13.9,6-19.6,7.3c-25.8,5.8-53.2,7.1-79.6,7.4
				c-28.3,0.3-55.4-4.2-83.3-7.4c-7.6-0.9-14.1-2.2-18-5.8c0.5,2.7,1,5.2,1.5,6.8c1.1,4.2,2.6,8.8,5.2,12.3
				c4.9,6.6,13.5,7.7,21.2,8.6c13.1,1.5,26.3,1,39.4,2.4c5.9,0.6,11.8,1.7,17.8,2.2c7,0.5,13.9-0.5,20.9-0.7
				c14.5-0.3,28.4,1.1,42.8-1.5c11.5-2.1,22.7-5.5,34.1-7.9c6.7-1.4,13-2.4,15.7-9.8C431,193.4,431.4,189.4,431.5,185.5z"/>
			<path class="st3" d="M335.5,129.2c18,0.9,35.3-2,53.1-4.2c12.6-1.6,35.5-5.5,41.5-18.6c6.4-13.9-6.4-36-15.5-46.1
				C403.7,48,388.2,40.1,372.9,35c-33.3-11.1-72.5-10-104,6.3c-13.6,7.1-23.6,17-30.3,30.9c-5.3,11.1-10.1,25.8-6.5,38.1
				c6.3,13.6,28.9,15.8,41.9,17.8C294.5,131.1,314.9,128.2,335.5,129.2z M396,92.6c2.6,2.6,1.7,7.3-0.5,9.9
				c-2.8,3.3-7.2,2.5-10.1-0.2c-3.6-3.3-4-8-4.1-12.6c0-0.5,0.2-0.9,0.4-1.2c0.3-0.5,0.8-0.8,1.6-0.8c2.3,0.1,4.2,0.6,6.3,1.6
				C391.7,90.1,394.3,90.9,396,92.6z M369,46.5c0.2,0,0.3,0,0.5,0.1c3.9,0.8,8.9,0.7,12.1,3.2c2.8,2.2,2.7,6.7,1,9.6
				c-2.3,3.9-7,3.7-10.3,1.3c-3.8-2.7-4.9-7.1-5.6-11.5C366.4,48,367.4,46.4,369,46.5z M322.1,51.9c2.7-3.7,6.9-4.9,11.3-5.6
				c0.3-0.1,0.6-0.1,0.9,0c0.4,0.1,0.8,0.3,1.1,0.6c0.3,0.3,0.6,0.7,0.7,1.2c0.1,0.3,0.1,0.5,0,0.8c-0.7,4-0.3,9.3-3.1,12.6
				c-2.3,2.7-6.9,2.5-9.7,0.7C319.3,59.8,319.7,55.2,322.1,51.9z M316.5,96.1c2.1-4.2,6.3-6,10.5-7.5c0.9-0.3,1.7,0,2.1,0.6
				c0.2,0.2,0.3,0.5,0.4,0.8c0.7,2.4,0.7,4.5,0.4,7c-0.2,2.2-0.2,4.8-1.3,6.7c-1.8,3.1-6.4,3.7-9.5,2.4
				C315.1,104.4,314.7,99.8,316.5,96.1z M274.6,53.6c1.2-4.1,5.7-5.1,9.3-4.1c4.4,1.2,7,4.8,9.3,8.4c0.4,0.6,0.4,1.2,0.2,1.7
				c-0.1,0.6-0.6,1.1-1.4,1.3c-4,0.9-9.3,3.4-13.4,2C275.2,61.7,273.7,56.8,274.6,53.6z M265.1,102.3c-3.4,1.8-7.7-0.7-9.4-3.8
				c-2-3.5,0-7.2,3.2-9.1c4.4-2.5,9.2-1.3,13.7,0.4c0.3,0.1,0.6,0.3,0.8,0.5c0.8,0.5,1.2,1.5,0.4,2.5c-0.1,0.1-0.1,0.2-0.2,0.3
				c0,0.1-0.1,0.1-0.2,0.2C271.1,96.5,268.5,100.4,265.1,102.3z"/>
			<path class="st1" d="M288.3,57.8c-1-1.4-2.1-2.7-3.5-3.6c-2.1-1.2-6.3-2-6.3,1.5C278.5,60.7,284.2,59,288.3,57.8z"/>
			<path class="st1" d="M326.7,59.3c1.3,0.3,2.5,0.3,3.3-0.9c0.6-1,0.8-2.5,1-3.6c0.3-1.4,0.5-2.7,0.6-4c-1.6,0.3-3.2,0.9-4.5,1.8
				C324.8,54.2,322.7,58.4,326.7,59.3z"/>
			<path class="st1" d="M379.6,55.8c0.6-3.4-2.4-3.6-5-4.1c-1.1-0.2-2.3-0.4-3.5-0.6c0.4,1.7,0.9,3.4,2,4.8
				C375,58.2,378.8,59.7,379.6,55.8z"/>
			<path class="st1" d="M392.7,99.4c0.6-0.9,1-2.5,0.6-3.5c-0.4-1-1.6-1.4-2.5-1.8c-1.8-0.8-3.5-1.8-5.3-2.2
				c0.1,1.9,0.3,3.9,1.3,5.6C387.9,99.4,390.9,102,392.7,99.4z"/>
			<path class="st1" d="M321.5,102.6c3.5,0.8,4-1.9,4.3-4.6c0.2-1.7,0.3-3.1,0.2-4.6c-1.6,0.6-3.1,1.3-4.3,2.5
				C320,97.5,318,101.7,321.5,102.6z"/>
			<path class="st1" d="M260.4,97.8c2.6,2.1,4.3-0.4,6.1-2.4c0.8-0.9,1.5-1.8,2.2-2.7c-1.7-0.6-3.5-0.9-5.3-0.7
				C260.5,92.6,257.1,95.1,260.4,97.8z"/>
			<path class="st4" d="M404.1,139.4c3.5-0.6,10-1.1,12.8-3.6c4.7-4.3,2-8.9-3.1-11c-2.9,1.1-6,2-9,2.8c-5,4.4-10.1,8.5-15.3,12.7
				C394.4,140.6,399.4,140.2,404.1,139.4z"/>
			<path class="st5" d="M239.5,170.1c2.3,6.8,9.6,7.7,15.7,8.5c9.7,1.3,19.4,2.6,29.1,3.4c18.5,1.4,36.6,2.4,55.2,2.1
				c17.2-0.3,34.7-0.9,51.8-2.9c7.4-0.9,15.9-2.2,22.8-5.3c4.3-1.9,5.1-3.6,4.9-8.3c-0.1-2.9-0.5-6.6-2.2-9c0,0,0,0,0,0
				c-2.7-0.9-5.4-2-8.2-2.2c-5-0.4-3,0.3-5.1,2.4c-3.3,3.2-5.6,6.8-10.4,4.7c-4.5-1.9-4.9-6.1-11.1-3.3c-3.5,1.6-6.1,5.8-9.2,8.1
				c-3.9,2.9-8.3,4.5-12.6,1.7c-1.8-1.2-6.5-9.3-8.2-9.2c-0.9,0-2.7,5.1-3.4,6.2c-3.1,5.2-4.1,4.9-8.7,3.4c-1.3-2.1-2.8-2.2-4.3-0.3
				c-0.6,0.4-1.3,0.7-1.9,1.1c-0.9,0.5-1.8,1.1-2.8,1.4c-2.6,0.8-4.9,0.7-7.4-0.3c-3.5-1.2-7.2-4-9.9-6.5c-2.4-2.2-3.6-5.6-6.8-5.5
				c-5.2,0.1-9.8,6.9-15.2,6.2c-3.8-0.5-5.7-4.9-9.4-5.9c-6.9-1.9-7.3,2.4-10.9,6.3c-2.8,3-4.6,3-7.7,0.6c-3.4-2.7-2.2-2.8-5.8-0.5
				c-0.8,0.5-1.1,1.1-2,1.6c-1.5,0.8-4.2,1-5.8,0.6c-7-1.6-4.1-6.6-5.5-11.7c-0.1-0.4-0.3-0.8-0.4-1.1
				C239.6,158.4,238,165.7,239.5,170.1z"/>
			<path class="st6" d="M370.9,150.5c3.7-1.4,8.4-7.1,11.4-9.5c4.8-3.8,9.6-7.7,14.3-11.6c-1.6,0.3-3.2,0.5-4.7,0.7
				c-11.3,1.4-22.6,3.3-33.9,4.3c-11.3,1-22.5,0-33.8,0.1c-3.1,0-6.2,0.1-9.3,0.1c8.9,2.6,17.9,5.1,26.8,7.8c0.4,0,0.7,0.1,1,0.3
				c4.7,1.4,9.4,2.9,14.1,4.5C360.9,148.6,366.6,152.1,370.9,150.5z"/>
			<path class="st4" d="M335.9,144.9c-11.6-3.4-23.2-6.6-34.7-10.3c-0.2,0-0.4,0-0.6,0c-1.4,3.3-3.4,5.7-5.8,7.6
				C306.7,150.3,322.8,150.4,335.9,144.9z"/>
			<path class="st4" d="M245.4,138c2.4,1.1,4.8,1.9,7.4,2.3c4.7,1,9.6,1.3,14.4,1.6c9.7,0.6,23.7,2.9,29.1-7.2
				c-11.2-0.1-22.3-0.8-33.6-3.1c-6.4-1.3-14.3-2.9-21.1-6C238.8,131.7,240.1,135.8,245.4,138z"/>
			<path class="st0" d="M431.8,144.7c3.8-0.6,9.3-1.6,9.6-6.4c0.2-3.6-1.8-8.3-2.7-11.7c-0.7-2.9-0.9-5.7-3.5-7.8
				c-2.1-1.7-4.3-2.3-6.5-2.2c1.2-1,2.4-2.1,3.5-3.3c10.1-11.4,2.5-30.1-3.4-41.7c-7.6-15.1-20.3-26-35.2-33.7
				c-35.7-18.5-80-20.8-117.5-5.9C258.3,39.2,243.9,50,235,67.3c-6.7,12.9-12.5,30.2-8,44.7c0.1,0.2,0.2,0.4,0.3,0.6c0,0,0,0,0,0.1
				c1.2,2.7,2.9,5,4.9,6.9c-5.6-0.3-11.5,2.6-11.5,9.2c0,3.1,1.8,2.9,2.5,5.6c1.1,3.9,1.6,1.1-1.4,3.9c-2.1,1.9-5.3,2.1-6.3,5.1
				c-0.2,0.7,0,1.5,0.5,2c4.2,4.3,3.8,8.6,10.3,10.2c3,0.7,6.2,0.6,9.2,0.3c1.2-0.1,2.3-0.4,3.4-0.7c-1.7,1.7-2.9,3.9-3.4,6.3
				c-0.3,0-0.5,0-0.8,0.1c-15.6,3.7-8.9,29.6-4.7,39.3c9.8,22.6,42.3,18.4,62.7,19.1c6.3,0.2,12.5,1.4,18.8,2.1
				c7.6,0.9,14.9,0.3,22.5,0c14.6-0.7,28.8,1.1,43.4-1.2c12.9-2,25.4-5.9,38.1-8.6c9.4-2,16.1-4,19.5-13.6
				c3.8-10.6,4.3-35.5-8.5-40.3c1-0.8,1.7-2.1,2-4c0.3-2.5-2.8-7.1-1.9-8.9C426.4,145.4,429.9,145,431.8,144.7z M413.9,206.8
				c-11.4,2.4-22.6,5.8-34.1,7.9c-14.4,2.6-28.3,1.2-42.8,1.5c-7,0.1-13.9,1.2-20.9,0.7c-6-0.4-11.9-1.6-17.8-2.2
				c-13.1-1.3-26.2-0.9-39.4-2.4c-7.7-0.9-16.3-2-21.2-8.6c-2.6-3.5-4.1-8.1-5.2-12.3c-0.4-1.6-1-4-1.5-6.8c4,3.6,10.4,4.9,18,5.8
				c28,3.2,55,7.7,83.3,7.4c26.4-0.3,53.7-1.6,79.6-7.4c5.7-1.3,15.6-2.3,19.6-7.3c0,0.8,0,1.6,0,2.2c-0.1,3.9-0.5,7.9-1.9,11.6
				C426.9,204.4,420.7,205.4,413.9,206.8z M222,145c-0.3-2.3-1.3-0.7,1.1-2.8c1.3-1.1,4.1-1.6,5.1-3.2c0.4-0.7,0.9-1.2,1-2
				c0.1-0.9-0.7-1.7-0.7-2.5c-0.1-0.2-0.1-0.3-0.2-0.5c-2.8-3.3-0.3-6.4,7.5-9.5c0.1,0.1,0.2,0.1,0.4,0.1c-1.6,2.4-2,5.4-0.8,8.5
				c3,7.8,12,10.4,19.4,11.6c10.6,1.6,26,4.5,36.5-0.4c0.1,0.3,0.4,0.6,0.7,0.9c14.3,10.3,34.7,9.5,49.8,1.5
				c9.3,2.8,18.5,5.9,27.5,9.5c0.7,0.3,1.5-0.1,2-0.5c4.5-4,9.1-7.9,13.8-11.7c10.5,1.4,25.7,0.9,34.7-5.1c6.6-4.4,4.5-11-0.3-15.2
				c5.5-2.2,11.7-6.7,15.2,3.7c0.3,0.9,2.2,8.9,2.2,9.3c-0.9,6.7-10,2.1-13.5,5.3c-3.7,3.4,4,10.9-0.9,13.5
				c-2.3,1.3-10.5-3-13.2-3.3c-2.7-0.3-5.1,0.1-7.8,0.8c-0.9,0.2-1.4,1.1-1.5,2c-0.8,11-8.8,1.1-12,0.1c-3.2-1-6.2,0.4-8.9,2.2
				c-4,2.6-8,9.7-13,10.1c-7,0.6-7.5-9-12.8-10.9c-6.8-2.4-5.6,10.3-12.2,9.6c-3.3-0.3-2.5-1.8-6.5-0.1c-4.4,2-6.6,4-11.5,1.6
				c-3.6-1.8-6.5-4.6-9.1-7.5c-6.2-6.8-9.4-2.9-17.1,0.2c-6.1,2.4-7.9-1-13.4-3.8c-3.3-1.7-5.1-2.3-8.5-0.4
				c-2.8,1.6-5.6,8.7-8.4,8.5c-2.4-0.1-3.6-5.3-7-4.8c-1.4,0.2-1.7,1-2.7,1.5c-0.4,0.2-0.4,0.8-0.8,1c-0.3,0.5-0.5,0.9-0.8,1.4
				c-2.3-0.6-4.5-1.2-6.8-1.9c-1.8-3.1,2.1-7.1-1.2-10C240.4,145.7,223.9,159.5,222,145z M232.1,110.3c-3.7-12.3,1.2-27,6.5-38.1
				c6.6-13.9,16.6-23.8,30.3-30.9c31.6-16.3,70.7-17.5,104-6.3c15.4,5.1,30.8,13,41.8,25.2c9,10.1,21.9,32.3,15.5,46.1
				c-6,13.1-28.9,17-41.5,18.6c-17.8,2.2-35.1,5.1-53.1,4.2c-20.6-1-41,1.9-61.5-1.1C261,126.1,238.4,123.8,232.1,110.3z
				 M342.7,142.7c-0.3-0.2-0.7-0.3-1-0.3c-8.9-2.7-17.9-5.2-26.8-7.8c3.1,0,6.2-0.1,9.3-0.1c11.3-0.1,22.5,0.9,33.8-0.1
				c11.4-1,22.6-3,33.9-4.3c1.5-0.2,3.1-0.4,4.7-0.7c-4.7,3.9-9.5,7.8-14.3,11.6c-3.1,2.5-7.7,8.1-11.4,9.5
				c-4.3,1.6-10.1-1.9-14.1-3.3C352.2,145.6,347.5,144.1,342.7,142.7z M241.4,125.5c6.9,3.1,14.7,4.8,21.1,6
				c11.3,2.2,22.5,2.9,33.6,3.1c-5.3,10.1-19.3,7.8-29.1,7.2c-4.8-0.3-9.7-0.6-14.4-1.6c-2.5-0.5-5-1.2-7.4-2.3
				C240.1,135.8,238.8,131.7,241.4,125.5z M300.6,134.7c0.2,0,0.4,0,0.6,0c11.5,3.6,23.1,6.8,34.7,10.3c-13.1,5.5-29.2,5.4-41.1-2.7
				C297.3,140.4,299.3,137.9,300.6,134.7z M404.9,127.6c3-0.7,6-1.7,9-2.8c5.1,2,7.7,6.6,3.1,11c-2.7,2.5-9.2,3-12.8,3.6
				c-4.8,0.8-9.7,1.2-14.6,0.9C394.7,136.2,399.9,132,404.9,127.6z M244.2,156.1c0.2,0.3,0.3,0.7,0.4,1.1c1.4,5.2-1.5,10.1,5.5,11.7
				c1.6,0.4,4.3,0.2,5.8-0.6c1-0.5,1.3-1.1,2-1.6c3.5-2.3,2.3-2.2,5.8,0.5c3,2.4,4.9,2.5,7.7-0.6c3.6-3.9,4-8.2,10.9-6.3
				c3.7,1,5.6,5.5,9.4,5.9c5.4,0.7,10-6.1,15.2-6.2c3.2-0.1,4.4,3.4,6.8,5.5c2.7,2.5,6.4,5.3,9.9,6.5c2.6,0.9,4.8,1,7.4,0.3
				c1-0.3,1.9-0.9,2.8-1.4c0.6-0.4,1.3-0.7,1.9-1.1c1.5-1.9,3-1.8,4.3,0.3c4.6,1.5,5.5,1.9,8.7-3.4c0.7-1.1,2.5-6.2,3.4-6.2
				c1.7,0,6.3,8,8.2,9.2c4.3,2.8,8.7,1.2,12.6-1.7c3.1-2.3,5.6-6.6,9.2-8.1c6.3-2.8,6.6,1.4,11.1,3.3c4.8,2,7.1-1.5,10.4-4.7
				c2-2,0.1-2.7,5.1-2.4c2.8,0.2,5.5,1.4,8.2,2.2c0,0,0,0,0,0c1.7,2.5,2.1,6.1,2.2,9c0.1,4.7-0.6,6.3-4.9,8.3
				c-6.9,3.1-15.3,4.4-22.8,5.3c-17.1,2-34.6,2.7-51.8,2.9c-18.6,0.3-36.6-0.7-55.2-2.1c-9.7-0.7-19.4-2.1-29.1-3.4
				c-6.1-0.8-13.5-1.6-15.7-8.5C238,165.7,239.6,158.4,244.2,156.1z M235,167c0.6,6.1,4.1,12.1,10.1,14.1c5.6,1.9,12.3,1.9,18.1,2.7
				c7.6,1,15.1,1.8,22.7,2.5c14.4,1.2,28.3,2,42.8,2c24,0,49.8,0.2,73.4-4.7c5.6-1.2,16.7-2.6,20-8.3c1.7-2.9,1.7-7.8,0.7-12.2
				c3.5,0.6,5.6,3.3,6.8,6.7c0.4,2.9,0.3,6.2-0.4,8.3c-1.6,4.7-6.7,5.8-11.2,7c-7,1.9-14.2,3.4-21.4,4.4
				c-22.1,3.3-44.9,4.4-67.2,4.5c-22.1,0.1-44.1-1.7-65.9-5.1c-6.5-1-12.8-2-19.3-2.6c-8.9-0.9-13.7-4.7-13.3-13.6
				C231.5,170,232.8,167.9,235,167z"/>
			<path class="st0" d="M273.7,92.8c0.7-1,0.3-2-0.4-2.5c-0.2-0.2-0.5-0.4-0.8-0.5c-4.5-1.7-9.3-2.9-13.7-0.4
				c-3.2,1.8-5.1,5.6-3.2,9.1c1.7,3.1,6,5.6,9.4,3.8c3.4-1.9,6-5.8,8.3-9c0.1-0.1,0.1-0.1,0.2-0.2C273.6,93,273.7,92.9,273.7,92.8z
				 M263.4,92.1c1.8-0.3,3.6,0.1,5.3,0.7c-0.7,0.9-1.4,1.8-2.2,2.7c-1.7,2-3.4,4.5-6.1,2.4C257.1,95.1,260.5,92.6,263.4,92.1z"/>
			<path class="st0" d="M278.6,62.9c4.1,1.4,9.4-1.1,13.4-2c0.8-0.2,1.3-0.7,1.4-1.3c0.2-0.5,0.2-1.1-0.2-1.7
				c-2.3-3.7-4.9-7.2-9.3-8.4c-3.7-1-8.2,0-9.3,4.1C273.7,56.8,275.2,61.7,278.6,62.9z M278.4,55.8c0-3.5,4.2-2.7,6.3-1.5
				c1.5,0.9,2.6,2.2,3.5,3.6C284.2,59,278.5,60.7,278.4,55.8z"/>
			<path class="st0" d="M381.8,88.3c-0.3,0.3-0.5,0.7-0.4,1.2c0,4.6,0.5,9.3,4.1,12.6c2.9,2.7,7.3,3.5,10.1,0.2
				c2.2-2.5,3.1-7.3,0.5-9.9c-1.6-1.6-4.2-2.5-6.3-3.4c-2.1-1-4-1.5-6.3-1.6C382.6,87.5,382.1,87.9,381.8,88.3z M385.4,91.9
				c1.8,0.5,3.5,1.4,5.3,2.2c0.9,0.4,2.1,0.8,2.5,1.8c0.4,1,0,2.6-0.6,3.5c-1.8,2.6-4.8,0.1-5.9-1.9
				C385.8,95.8,385.5,93.9,385.4,91.9z"/>
			<path class="st0" d="M372.3,60.7c3.3,2.4,8,2.5,10.3-1.3c1.7-2.9,1.8-7.4-1-9.6c-3.2-2.5-8.2-2.4-12.1-3.2
				c-0.2,0-0.3-0.1-0.5-0.1c-1.6-0.2-2.6,1.5-2.2,2.7C367.4,53.6,368.5,58,372.3,60.7z M371.2,51.1c1.2,0.2,2.3,0.4,3.5,0.6
				c2.6,0.5,5.6,0.7,5,4.1c-0.7,3.9-4.6,2.4-6.4,0.1C372.1,54.5,371.5,52.8,371.2,51.1z"/>
			<path class="st0" d="M319.3,106.1c3.1,1.3,7.7,0.7,9.5-2.4c1.1-1.9,1-4.6,1.3-6.7c0.3-2.5,0.3-4.6-0.4-7
				c-0.1-0.3-0.2-0.6-0.4-0.8c-0.4-0.6-1.2-1-2.1-0.6c-4.2,1.5-8.4,3.3-10.5,7.5C314.7,99.8,315.1,104.4,319.3,106.1z M325.8,98
				c-0.3,2.8-0.8,5.5-4.3,4.6c-3.5-0.8-1.5-5.1,0.2-6.7c1.2-1.2,2.8-1.9,4.3-2.5C326.2,94.8,326,96.3,325.8,98z"/>
			<path class="st0" d="M323.1,62.2c2.8,1.8,7.5,2,9.7-0.7c2.8-3.3,2.4-8.6,3.1-12.6c0-0.3,0.1-0.5,0-0.8c-0.1-0.5-0.3-0.9-0.7-1.2
				c-0.3-0.3-0.6-0.5-1.1-0.6c-0.3-0.1-0.6-0.1-0.9,0c-4.3,0.7-8.5,1.9-11.3,5.6C319.7,55.2,319.3,59.8,323.1,62.2z M331.6,50.8
				c-0.2,1.3-0.3,2.7-0.6,4c-0.2,1.1-0.4,2.6-1,3.6c-0.7,1.1-2,1.1-3.3,0.9c-4-0.8-1.9-5,0.4-6.7C328.4,51.6,330,51.1,331.6,50.8z"
				/>
		</g>
	</g>
	<g>
		<path class="st0" d="M123,0.3h95.1v40.3h-19.8L139,222.4H79L21.4,40.6H0V0.3h95.2v40.3H71.5l38.7,126l38.5-126H123V0.3z"/>
	</g>
	<g>
		<path class="st0" d="M467.9,182.2h22.7V40.6h-22.7V0l108.3,0.3c10.1,0,19.3,1.8,27.6,5.3c8.3,3.6,15.5,8.4,21.6,14.5
			c6.1,6.1,10.8,13.2,14.1,21.4c3.4,8.2,5.1,16.8,5.1,26c0,10.7-1.9,19.6-5.6,26.7c-3.8,7-9.1,12.7-16,17
			c7.3,4.7,13.1,10.5,17.4,17.4s6.4,15.3,6.4,25.1c0,10.1-1.7,19.3-5.2,27.7c-3.5,8.4-8.2,15.7-14.2,21.8
			c-6,6.1-13.1,10.8-21.3,14.2s-17,5.1-26.5,5.1H467.9V182.2z M539.2,40.6v49.8h34.9c2.7,0,5.3-0.7,7.8-2.1c2.4-1.4,4.6-3.2,6.4-5.5
			c1.8-2.3,3.2-4.9,4.3-7.8c1.1-2.9,1.6-5.9,1.6-9c0-3-0.5-6.1-1.6-9.1c-1.1-3-2.5-5.8-4.3-8.2c-1.8-2.4-3.9-4.4-6.4-5.9
			c-2.4-1.5-5-2.3-7.8-2.3H539.2z M539.2,130.5v51.7h36.9c2.8,0,5.5-0.7,8-2.2s4.6-3.4,6.4-5.8c1.8-2.4,3.2-5.2,4.3-8.3
			c1.1-3.2,1.6-6.5,1.6-9.9c0-3.6-0.5-7-1.6-10c-1.1-3.1-2.5-5.8-4.4-8.1c-1.9-2.3-4-4.1-6.5-5.4s-5.1-2-7.8-2H539.2z"/>
	</g>
</g>
</svg>
